<?xml version="1.0" encoding="UTF-8" standalone="no"?>
<svg 
    role="img" 
    xmlns="http://www.w3.org/2000/svg" 
    width="1000mm"
    height="1000mm"
    viewBox="0 0 1000 1000"
    style="max-width:1.6em; height: auto;">
    
    <path 
        id="path" 
        style="opacity:1;vector-effect:none;fill:#ffffff;fill-opacity:1;"
        d=" M 825 113C 859 113 887 141 887 175C 887 175 887 825 887 825C 887 859 859 887 825 887C 825 887 725 887 725 887C 691 887 663 859 663 825C 663 825 663 175 663 175C 663 141 691 113 725 113C 725 113 825 113 825 113M 550 387C 584 387 613 416 613 450C 613 450 613 825 613 825C 613 859 584 887 550 887C 550 887 450 887 450 887C 416 887 387 859 387 825C 387 825 387 450 387 450C 387 416 416 387 450 387C 450 387 550 387 550 387M 275 613C 309 613 337 641 337 675C 337 675 337 825 337 825C 337 859 309 887 275 887C 275 887 175 887 175 887C 141 887 113 859 113 825C 113 825 113 675 113 675C 113 641 141 613 175 613C 175 613 275 613 275 613"
        transform="translate(1000,0) scale(-1,1)">
    </path>    
</svg>