<?xml version="1.0" encoding="UTF-8" standalone="no"?>
<svg 
    role="img" 
    xmlns="http://www.w3.org/2000/svg" 
    width="1000mm"
    height="1000mm"
    viewBox="0 0 1000 1000"
    style="max-width:1.6em; height: auto;">
    
    <path 
        id="path" 
        style="opacity:1;vector-effect:none;fill:#ffffff;fill-opacity:1;"
        d=" M 300 325C 300 325 481 325 481 325C 493 325 505 320 514 312C 514 312 667 175 667 175C 681 162 702 159 720 167C 738 175 750 193 750 212C 750 212 750 788 750 788C 750 807 738 825 720 833C 702 841 681 838 667 825C 667 825 514 688 514 688C 505 680 493 675 481 675C 481 675 300 675 300 675C 287 675 274 670 265 660C 255 651 250 638 250 625C 250 625 250 375 250 375C 250 362 255 349 265 340C 274 330 287 325 300 325C 300 325 300 325 300 325"
        transform="">
    </path>    
</svg>